:FULLY-SPECIFIED
:FORCE-ALL-JOINTS-BE-3DOF
:DEGREES
2548
root 4.01578 13.8363 -23.9894 989.782 78.2139 -91.6767
lfemur -33.7072 0.124929 -16.2882
ltibia 86.6464 0 0
lfoot -23.4671 29.0461 0
ltoes -44.3763 0 0
rfemur -57.7566 -19.0437 13.7147
rtibia 47.33 0 0
rfoot -0.318632 5.30181 0
rtoes 2.57108 0 0
lowerback 17.8643 0.465766 -4.70465
upperback -0.43005 -0.0635483 2.88781
thorax -10.5804 0.334218 5.87487
lowerneck 5.01219 -14.6589 -15.1549
upperneck -0.393126 -20.4685 15.2954
head 2.22942 -10.3807 6.3076
lclavicle -1.39241e-14 -1.3675e-14 0
lhumerus -48.8507 -44.5171 112.225
lradius 106.032 0 0
lwrist 78.9729 0 0
lhand 7.08499 399.404 0
lfingers 7.12502 0 0
lthumb 32.3576 -653.454 0
rclavicle -1.39241e-14 -1.3675e-14 0
rhumerus 10.4078 -6.46784 -59.4803
rradius 80.0846 0 0
rwrist 12.272 0 0
rhand -32.6485 -401.781 0
rfingers 7.12502 0 0
rthumb -5.87163 288.505 0
2549
root 3.96658 13.8664 -24.1323 995.776 77.7468 -85.4729
lfemur -32.9484 -1.71617 -16.9365
ltibia 86.0858 0 0
lfoot -22.9161 29.4538 0
ltoes -45.2133 0 0
rfemur -57.8546 -18.2333 14.2499
rtibia 44.7112 0 0
rfoot -0.646246 5.0023 0
rtoes 1.2685 0 0
lowerback 18.0273 0.587217 -4.92309
upperback -0.330946 0.0398327 2.85807
thorax -10.5797 0.391771 5.94154
lowerneck 5.00135 -14.6642 -15.165
upperneck -0.462277 -20.4681 15.3373
head 2.21626 -10.3808 6.32221
lclavicle -1.51849e-14 -1.37824e-14 0
lhumerus -48.34 -44.331 111.901
lradius 105.807 0 0
lwrist 78.603 0 0
lhand 6.95937 399.231 0
lfingers 7.12502 0 0
lthumb 32.2382 -653.601 0
rclavicle -1.51849e-14 -1.37824e-14 0
rhumerus 10.4368 -5.30644 -59.6094
rradius 80.6476 0 0
rwrist 9.95952 0 0
rhand -31.825 -400.733 0
rfingers 7.12502 0 0
rthumb -5.0766 289.542 0
2550
root 3.91737 13.8966 -24.2751 1001.28 77.3434 -79.7496
lfemur -32.1914 -3.42832 -17.546
ltibia 85.5237 0 0
lfoot -22.4268 29.8239 0
ltoes -46.0273 0 0
rfemur -57.9476 -17.5152 14.7614
rtibia 42.184 0 0
rfoot -1.00138 4.74833 0
rtoes -0.0646698 0 0
lowerback 18.1779 0.701661 -5.14897
upperback -0.239868 0.133345 2.83139
thorax -10.5791 0.445399 6.01838
lowerneck 4.98956 -14.6707 -15.1768
upperneck -0.517775 -20.4698 15.366
head 2.2063 -10.3818 6.33243
lclavicle -1.61822e-14 -1.3933e-14 0
lhumerus -47.8949 -44.1063 111.609
lradius 105.606 0 0
lwrist 78.2737 0 0
lhand 6.86316 399.065 0
lfingers 7.12502 0 0
lthumb 32.1468 -653.747 0
rclavicle -1.61822e-14 -1.3933e-14 0
rhumerus 10.4076 -4.24573 -59.7957
rradius 81.2111 0 0
rwrist 7.82467 0 0
rhand -31.0542 -399.736 0
rfingers 7.12502 0 0
rthumb -4.33244 290.529 0
2551
root 3.86817 13.9267 -24.418 1006.42 76.942 -74.3977
lfemur -31.4493 -5.00868 -18.1247
ltibia 84.9613 0 0
lfoot -21.9977 30.1621 0
ltoes -46.809 0 0
rfemur -58.037 -16.8772 15.2576
rtibia 39.7875 0 0
rfoot -1.38646 4.51272 0
rtoes -1.41025 0 0
lowerback 18.3183 0.810402 -5.38111
upperback -0.156154 0.218725 2.80674
thorax -10.5793 0.495824 6.10315
lowerneck 4.97698 -14.6784 -15.1902
upperneck -0.561039 -20.4737 15.3866
head 2.19966 -10.3837 6.33977
lclavicle -1.69387e-14 -1.41061e-14 0
lhumerus -47.4821 -43.8664 111.337
lradius 105.417 0 0
lwrist 77.9741 0 0
lhand 6.78858 398.91 0
lfingers 7.12502 0 0
lthumb 32.0758 -653.887 0
rclavicle -1.69387e-14 -1.41061e-14 0
rhumerus 10.3702 -3.2461 -60.0021
rradius 81.7822 0 0
rwrist 5.84983 0 0
rhand -30.3228 -398.782 0
rfingers 7.12502 0 0
rthumb -3.62634 291.475 0
